<?xml version="1.0" encoding="utf-8"?>
<!-- Generator: Adobe Illustrator 22.0.1, SVG Export Plug-In . SVG Version: 6.00 Build 0)  -->
<svg version="1.1" xmlns="http://www.w3.org/2000/svg" xmlns:xlink="http://www.w3.org/1999/xlink" x="0px" y="0px"
	 viewBox="0 0 260 164" style="enable-background:new 0 0 260 164;" xml:space="preserve">
<style type="text/css">
	.st0{fill:#272E3F;}
	.st1{fill:#FFFFFF;}
</style>
<g id="Background">
	<rect class="st0" width="260" height="164"/>
</g>
<g id="Logo_Light">
	<g>
		<g>
			<g>
				<path class="st1" d="M74.2,73.8l4.8-5.7c-1.9-1.7-4-2.9-6.1-3.6c-2.1-0.7-4.6-1-7.5-1c-2.4,0-4.7,0.4-6.9,1.1
					c-2.2,0.7-4.1,1.9-5.6,3.6c-1.5,1.7-2.2,3.7-2.2,6.2c0,3.6,1.4,6.2,4.2,7.9c2.8,1.7,6.2,2.7,10.2,2.9c2.5,0.1,4.3,0.5,5.3,1.1
					c1.1,0.6,1.6,1.4,1.6,2.6c0,1.2-0.6,2.2-1.8,3c-1.2,0.8-2.6,1.2-4.3,1.2c-2,0-4.3-0.5-6.7-1.4c-2.5-0.9-4.3-2.1-5.5-3.5
					l-4.2,6.2c2.4,2.5,4.8,4.1,7.4,4.9c2.6,0.9,5.5,1.3,8.7,1.3c3.2,0,5.9-0.5,8.2-1.6c2.3-1,4-2.4,5.1-4.1c1.1-1.7,1.7-3.6,1.7-5.8
					c0-4.1-1.4-6.9-4.2-8.5c-2.8-1.5-6.4-2.4-10.7-2.7c-4.3-0.3-6.5-1.6-6.5-3.8c0-1.1,0.6-1.9,1.7-2.5s2.7-0.9,4.7-0.9
					c1.7,0,3.3,0.2,4.7,0.7C71.7,71.9,73,72.7,74.2,73.8"/>
				<rect x="82" y="50" class="st1" width="8.6" height="49.4"/>
				<path class="st1" d="M119.4,82c0,2.8-0.8,5.2-2.5,7.2s-4,3-7,3s-5.3-1-7-3s-2.5-4.4-2.5-7.2s0.8-5.3,2.5-7.3s4-3,7-3
					c1.8,0,3.5,0.5,5,1.4c1.5,1,2.6,2.3,3.4,3.9C119,78.6,119.4,80.3,119.4,82 M128.1,82c0-3.3-0.8-6.4-2.3-9.2
					c-1.5-2.8-3.7-4.9-6.4-6.6c-2.8-1.6-6-2.4-9.6-2.4s-6.7,0.8-9.5,2.4c-2.7,1.6-4.8,3.8-6.3,6.6c-1.5,2.8-2.2,5.8-2.2,9.2
					s0.7,6.5,2.2,9.2c1.5,2.8,3.6,4.9,6.3,6.5c2.7,1.6,5.9,2.4,9.6,2.4s6.9-0.8,9.7-2.4c2.8-1.6,4.9-3.8,6.3-6.6
					C127.4,88.4,128.1,85.4,128.1,82"/>
				<path class="st1" d="M157.1,81.9c0,1.7-0.4,3.4-1.3,4.8c-0.8,1.5-2,2.7-3.4,3.5c-1.4,0.9-3,1.3-4.7,1.3c-1.7,0-3.4-0.4-4.8-1.3
					c-1.5-0.9-2.6-2.1-3.5-3.5c-0.9-1.5-1.3-3.1-1.3-4.8s0.4-3.3,1.3-4.7c0.9-1.4,2-2.6,3.5-3.4c1.5-0.8,3.1-1.3,4.8-1.3
					c1.7,0,3.3,0.4,4.7,1.3c1.4,0.9,2.6,2,3.4,3.4C156.6,78.6,157.1,80.2,157.1,81.9 M165.8,81.9c0-3.3-0.8-6.3-2.5-9.1
					c-1.7-2.8-3.9-5-6.7-6.6c-2.8-1.6-5.8-2.4-9.1-2.4c-3.4,0-6.4,0.8-9.2,2.4c-2.8,1.6-5,3.8-6.6,6.6c-1.6,2.8-2.4,5.8-2.4,9.1V114
					h8.6V97.4c2.9,1.8,6.1,2.7,9.6,2.7c3.3,0,6.3-0.8,9.1-2.4c2.8-1.6,5-3.8,6.6-6.6C165,88.3,165.8,85.2,165.8,81.9"/>
				<path class="st1" d="M194,77.5h-17.2c0.8-1.6,2-2.9,3.6-3.9c1.5-1,3.2-1.5,5.1-1.5c1.9,0,3.6,0.5,5.1,1.4
					C192,74.6,193.2,75.9,194,77.5 M203.7,86.2v-4.3c0-3.3-0.8-6.4-2.4-9.2c-1.6-2.8-3.8-5-6.7-6.7s-5.9-2.5-9.2-2.5
					c-3.3,0-6.4,0.8-9.2,2.5c-2.8,1.7-5,3.9-6.7,6.7c-1.7,2.8-2.5,5.9-2.5,9.2c0,3.3,0.8,6.3,2.4,9.1s3.8,5,6.6,6.7
					c2.8,1.7,5.9,2.5,9.2,2.5h5.8h8.3v-8.7h-14c-1.9,0-3.6-0.5-5.1-1.4s-2.7-2.2-3.6-3.8h27.1V86.2z"/>
			</g>
		</g>
		<g>
			<path class="st1" d="M203.7,60.4c0-0.6,0.2-1.2,0.5-1.7c0.3-0.5,0.7-0.9,1.2-1.2s1.1-0.5,1.7-0.5s1.2,0.2,1.7,0.5
				s0.9,0.7,1.2,1.2c0.3,0.5,0.5,1.1,0.5,1.7c0,0.6-0.1,1.1-0.4,1.7c-0.3,0.5-0.7,0.9-1.2,1.2s-1.1,0.5-1.7,0.5
				c-0.6,0-1.2-0.2-1.7-0.5s-0.9-0.7-1.2-1.2C203.9,61.6,203.7,61,203.7,60.4z M204.2,60.4c0,0.5,0.1,1,0.4,1.5s0.6,0.8,1.1,1.1
				s0.9,0.4,1.5,0.4c0.5,0,1-0.1,1.5-0.4c0.4-0.3,0.8-0.6,1.1-1.1c0.3-0.4,0.4-0.9,0.4-1.5c0-0.5-0.1-1-0.4-1.5
				c-0.3-0.4-0.6-0.8-1.1-1.1c-0.4-0.3-0.9-0.4-1.5-0.4c-0.5,0-1,0.1-1.5,0.4c-0.4,0.3-0.8,0.6-1.1,1.1
				C204.3,59.4,204.2,59.9,204.2,60.4z M208.5,59.6c0,0.2-0.1,0.5-0.2,0.6c-0.1,0.2-0.3,0.3-0.5,0.4l1.1,1.8h-0.8l-0.9-1.6h-0.6v1.6
				h-0.7v-4h1.2c0.5,0,0.9,0.1,1.1,0.3S208.5,59.2,208.5,59.6z M206.6,60.3h0.5c0.2,0,0.4-0.1,0.6-0.2c0.2-0.1,0.2-0.3,0.2-0.5
				c0-0.2-0.1-0.4-0.2-0.5c-0.1-0.1-0.4-0.1-0.7-0.1h-0.5v1.3H206.6z"/>
		</g>
	</g>
</g>
</svg>
